HIERARCHY
ROOT Hips
{
	OFFSET 0.000000 0.000000 0.000000
	CHANNELS 6 Xposition Yposition Zposition Xrotation Yrotation Zrotation
	JOINT C_ctrl
	{
		OFFSET 0.000000 35.040482 -0.000011
		CHANNELS 3 Xrotation Yrotation Zrotation
		JOINT Bip01
		{
			OFFSET -41.537640 41.789009 -0.000007
			CHANNELS 3 Xrotation Yrotation Zrotation
			JOINT Bip01_Pelvis
			{
				OFFSET -2.462887 0.000000 0.000000
				CHANNELS 3 Xrotation Yrotation Zrotation
				JOINT BN_Tail_01
				{
					OFFSET -11.399368 7.351341 -0.000013
					CHANNELS 3 Xrotation Yrotation Zrotation
					JOINT BN_Tail_02
					{
						OFFSET -11.365196 -0.343025 0.000012
						CHANNELS 3 Xrotation Yrotation Zrotation
						JOINT BN_Tail_03
						{
							OFFSET -15.076256 -0.454979 0.000017
							CHANNELS 3 Xrotation Yrotation Zrotation
							JOINT BN_Tail_04
							{
								OFFSET -17.395691 -0.525002 0.000016
								CHANNELS 3 Xrotation Yrotation Zrotation
								JOINT BN_Tail_05
								{
									OFFSET -16.699837 -0.504005 0.000016
									CHANNELS 3 Xrotation Yrotation Zrotation
									End Site
									{
										OFFSET 0.503998 -16.699829 0.000067
									}
								}
							}
						}
					}
				}
				JOINT Bip01_Spine
				{
					OFFSET 8.297798 5.916809 -0.000020
					CHANNELS 3 Xrotation Yrotation Zrotation
					JOINT Bip01_R_Thigh
					{
						OFFSET -8.297779 -5.916794 10.541781
						CHANNELS 3 Xrotation Yrotation Zrotation
						JOINT Bip01_R_Calf
						{
							OFFSET 5.631542 -22.906792 0.862690
							CHANNELS 3 Xrotation Yrotation Zrotation
							JOINT Bip01_R_HorseLink
							{
								OFFSET -16.984341 -19.231926 -3.555767
								CHANNELS 3 Xrotation Yrotation Zrotation
								JOINT Bip01_R_Foot
								{
									OFFSET 4.290367 -24.783146 0.578056
									CHANNELS 3 Xrotation Yrotation Zrotation
									JOINT Bip01_R_Toe0
									{
										OFFSET 3.561211 -5.815116 0.760802
										CHANNELS 3 Xrotation Yrotation Zrotation
										JOINT Bip01_R_Toe0Nub
										{
											OFFSET 16.135469 0.002017 1.534789
											CHANNELS 3 Xrotation Yrotation Zrotation
											End Site
											{
												OFFSET -0.000002 16.208284 -0.000056
											}
										}
									}
								}
							}
						}
					}
					JOINT Bip01_L_Thigh
					{
						OFFSET -8.297813 -5.916832 -10.541739
						CHANNELS 3 Xrotation Yrotation Zrotation
						JOINT Bip01_L_Calf
						{
							OFFSET 5.631535 -22.906792 -0.862625
							CHANNELS 3 Xrotation Yrotation Zrotation
							JOINT Bip01_L_HorseLink
							{
								OFFSET -16.984318 -19.231949 3.555875
								CHANNELS 3 Xrotation Yrotation Zrotation
								JOINT Bip01_L_Foot
								{
									OFFSET 4.290367 -24.783169 -0.577965
									CHANNELS 3 Xrotation Yrotation Zrotation
									JOINT Bip01_L_Toe0
									{
										OFFSET 3.561245 -5.815111 -0.760799
										CHANNELS 3 Xrotation Yrotation Zrotation
										JOINT Bip01_L_Toe0Nub
										{
											OFFSET 6.574303 -0.000005 -1.538561
											CHANNELS 3 Xrotation Yrotation Zrotation
											End Site
											{
												OFFSET 0.000004 -6.751935 0.000023
											}
										}
									}
								}
							}
						}
					}
					JOINT Bip01_Spine1
					{
						OFFSET 20.556803 -4.626213 -0.000025
						CHANNELS 3 Xrotation Yrotation Zrotation
						JOINT Saddle
						{
							OFFSET 17.608810 18.174690 -0.000143
							CHANNELS 3 Xrotation Yrotation Zrotation
							End Site
							{
								OFFSET -0.000063 -0.000061 -22.448387
							}
						}
						JOINT BN_center
						{
							OFFSET 10.743275 -13.417107 -0.172041
							CHANNELS 3 Xrotation Yrotation Zrotation
							End Site
							{
								OFFSET 22.434088 0.553078 -0.579614
							}
						}
						JOINT Bip01_Spine2
						{
							OFFSET 24.765072 -2.054115 -0.000032
							CHANNELS 3 Xrotation Yrotation Zrotation
							JOINT Handle
							{
								OFFSET 63.735676 16.430748 -16.052464
								CHANNELS 3 Xrotation Yrotation Zrotation
								JOINT IK_Chain01
								{
									OFFSET -4.713058 -6.020439 0.185448
									CHANNELS 3 Xrotation Yrotation Zrotation
									End Site
									{
										OFFSET -0.000023 -0.000023 -7.648071
									}
								}
							}
							JOINT BN_hair04_01
							{
								OFFSET 1.987491 16.256981 -2.049672
								CHANNELS 3 Xrotation Yrotation Zrotation
								JOINT BN_hair04_02
								{
									OFFSET -1.318762 -3.831451 -6.174704
									CHANNELS 3 Xrotation Yrotation Zrotation
									JOINT BN_hair04_03
									{
										OFFSET -0.827490 -5.886627 -5.656666
										CHANNELS 3 Xrotation Yrotation Zrotation
										End Site
										{
											OFFSET -2.658262 5.010620 -5.929780
										}
									}
								}
							}
							JOINT Bip01_Neck
							{
								OFFSET 25.574577 9.433014 -0.000084
								CHANNELS 3 Xrotation Yrotation Zrotation
								JOINT Bip01_R_Clavicle
								{
									OFFSET -16.535652 0.011192 6.705692
									CHANNELS 3 Xrotation Yrotation Zrotation
									JOINT Bip01_R_UpperArm
									{
										OFFSET 20.272621 -12.959984 2.510816
										CHANNELS 3 Xrotation Yrotation Zrotation
										JOINT Bip01_R_Forearm
										{
											OFFSET -13.633509 -15.503704 -0.653585
											CHANNELS 3 Xrotation Yrotation Zrotation
											JOINT Bip01_R_Hand
											{
												OFFSET 2.580030 -27.804676 -1.136415
												CHANNELS 3 Xrotation Yrotation Zrotation
												JOINT Bip01_R_Finger0
												{
													OFFSET -0.281744 -19.659061 -0.398649
													CHANNELS 3 Xrotation Yrotation Zrotation
													JOINT Bip01_Xtra02
													{
														OFFSET 4.152210 -5.712314 0.433813
														CHANNELS 3 Xrotation Yrotation Zrotation
														JOINT Bip01_Xtra02Nub
														{
															OFFSET 15.457960 0.041654 0.507982
															CHANNELS 3 Xrotation Yrotation Zrotation
															End Site
															{
																OFFSET -15.421730 -0.157725 -1.163459
															}
														}
													}
													JOINT Bip01_R_Finger0Nub
													{
														OFFSET 8.362326 -9.718440 -0.143142
														CHANNELS 3 Xrotation Yrotation Zrotation
														End Site
														{
															OFFSET -1.213036 -0.198171 9.872291
														}
													}
												}
											}
										}
									}
								}
								JOINT Bip01_L_Clavicle
								{
									OFFSET -16.535673 0.011162 -6.705583
									CHANNELS 3 Xrotation Yrotation Zrotation
									JOINT Bip01_L_UpperArm
									{
										OFFSET 20.272615 -12.959999 -2.510836
										CHANNELS 3 Xrotation Yrotation Zrotation
										JOINT Bip01_L_Forearm
										{
											OFFSET -13.633495 -15.503681 0.653678
											CHANNELS 3 Xrotation Yrotation Zrotation
											JOINT Bip01_L_Hand
											{
												OFFSET 2.579988 -27.804686 1.136487
												CHANNELS 3 Xrotation Yrotation Zrotation
												JOINT Bip01_L_Finger0
												{
													OFFSET -0.281765 -19.659058 0.398696
													CHANNELS 3 Xrotation Yrotation Zrotation
													JOINT Bip01_Xtra01
													{
														OFFSET 4.083549 -5.738758 -0.666714
														CHANNELS 3 Xrotation Yrotation Zrotation
														JOINT Bip01_Xtra01Nub
														{
															OFFSET 6.758158 -0.395525 -0.023239
															CHANNELS 3 Xrotation Yrotation Zrotation
															End Site
															{
																OFFSET 6.764923 -0.254147 -0.029908
															}
														}
													}
													JOINT Bip01_L_Finger0Nub
													{
														OFFSET -0.012636 -9.629153 0.045740
														CHANNELS 3 Xrotation Yrotation Zrotation
														End Site
														{
															OFFSET 0.988407 0.004791 8.293357
														}
													}
												}
											}
										}
									}
								}
								JOINT BN_hair03_01
								{
									OFFSET -5.894140 16.270622 -2.498433
									CHANNELS 3 Xrotation Yrotation Zrotation
									JOINT BN_hair03_02
									{
										OFFSET -0.189278 -7.800507 -6.219162
										CHANNELS 3 Xrotation Yrotation Zrotation
										JOINT BN_hair03_03
										{
											OFFSET 0.612345 -10.844475 -3.370718
											CHANNELS 3 Xrotation Yrotation Zrotation
											End Site
											{
												OFFSET -2.273296 2.862007 -10.769416
											}
										}
									}
								}
								JOINT Bip01_Neck1
								{
									OFFSET 9.383755 11.908699 -0.000007
									CHANNELS 3 Xrotation Yrotation Zrotation
									JOINT BN_hair02_01
									{
										OFFSET 9.126320 18.808022 -1.420810
										CHANNELS 3 Xrotation Yrotation Zrotation
										JOINT BN_hair02_02
										{
											OFFSET 0.393478 -5.181091 -5.248574
											CHANNELS 3 Xrotation Yrotation Zrotation
											JOINT BN_hair02_03
											{
												OFFSET 0.762280 -8.167076 -0.230047
												CHANNELS 3 Xrotation Yrotation Zrotation
												End Site
												{
													OFFSET -0.025837 -1.251419 -8.109770
												}
											}
										}
									}
									JOINT Bip01_Head
									{
										OFFSET 14.266129 10.475403 -0.000008
										CHANNELS 3 Xrotation Yrotation Zrotation
										JOINT BN_Reins_01
										{
											OFFSET 18.547455 -15.740112 -0.000035
											CHANNELS 3 Xrotation Yrotation Zrotation
											JOINT BN_Reins_02
											{
												OFFSET -5.372810 -5.884506 0.000028
												CHANNELS 3 Xrotation Yrotation Zrotation
												JOINT BN_Reins_03
												{
													OFFSET -6.395866 -15.947449 0.000070
													CHANNELS 3 Xrotation Yrotation Zrotation
													JOINT BN_Halter_R_01
													{
														OFFSET -1.234055 -3.096100 7.096737
														CHANNELS 3 Xrotation Yrotation Zrotation
														End Site
														{
															OFFSET 10.514435 -4.176861 -0.000004
														}
													}
													JOINT BN_Halter_L_01
													{
														OFFSET -1.234062 -3.096146 -7.096726
														CHANNELS 3 Xrotation Yrotation Zrotation
														End Site
														{
															OFFSET -10.514435 4.176865 -0.000000
														}
													}
													JOINT BN_Reins_04
													{
														OFFSET -6.737644 -16.971684 0.000074
														CHANNELS 3 Xrotation Yrotation Zrotation
														JOINT BN_Halter_R_02
														{
															OFFSET -4.688869 -11.781956 7.096771
															CHANNELS 3 Xrotation Yrotation Zrotation
															End Site
															{
																OFFSET 14.669624 -5.827511 -0.000006
															}
														}
														JOINT BN_Halter_L_02
														{
															OFFSET -4.688892 -11.782017 -7.096693
															CHANNELS 3 Xrotation Yrotation Zrotation
															End Site
															{
																OFFSET -14.669624 5.827507 -0.000002
															}
														}
														JOINT BN_Reins_05
														{
															OFFSET -6.822578 -16.971161 0.000074
															CHANNELS 3 Xrotation Yrotation Zrotation
															JOINT BN_Reins_06
															{
																OFFSET -6.140354 -15.095148 0.000066
																CHANNELS 3 Xrotation Yrotation Zrotation
																End Site
																{
																	OFFSET -15.095150 6.140352 -0.000002
																}
															}
														}
													}
												}
											}
										}
										JOINT BN_hair01_01
										{
											OFFSET 8.957344 8.870956 0.112121
											CHANNELS 3 Xrotation Yrotation Zrotation
											JOINT BN_hair01_02
											{
												OFFSET 6.002075 -2.962952 -3.121264
												CHANNELS 3 Xrotation Yrotation Zrotation
												End Site
												{
													OFFSET 5.917702 3.813591 -2.232396
												}
											}
										}
										JOINT BN_Eyebrow_R
										{
											OFFSET 11.795959 -0.430496 4.449781
											CHANNELS 3 Xrotation Yrotation Zrotation
											JOINT Bip01_Xtra06Nub
											{
												OFFSET 2.936661 -0.262573 3.246701
												CHANNELS 3 Xrotation Yrotation Zrotation
												End Site
												{
													OFFSET 2.768745 0.208199 3.394807
												}
											}
										}
										JOINT BN_Eyebrow_L
										{
											OFFSET 11.586395 -0.445618 -4.441728
											CHANNELS 3 Xrotation Yrotation Zrotation
											JOINT Bip01_Xtra05Nub
											{
												OFFSET 3.244698 -0.349442 -4.416700
												CHANNELS 3 Xrotation Yrotation Zrotation
												End Site
												{
													OFFSET 3.053162 0.072495 -4.564033
												}
											}
										}
										JOINT Bip01_R_Ear_01
										{
											OFFSET 7.142960 7.567184 4.311657
											CHANNELS 3 Xrotation Yrotation Zrotation
											JOINT Bip01_Xtra04Nub
											{
												OFFSET 9.464531 9.264214 1.682953
												CHANNELS 3 Xrotation Yrotation Zrotation
												End Site
												{
													OFFSET 8.448181 10.159340 1.910823
												}
											}
										}
										JOINT Bip01__L_Ear_01
										{
											OFFSET 7.214943 7.717056 -4.356771
											CHANNELS 3 Xrotation Yrotation Zrotation
											JOINT Bip01_Xtra03Nub
											{
												OFFSET 9.230225 8.944366 -2.322746
												CHANNELS 3 Xrotation Yrotation Zrotation
												End Site
												{
													OFFSET 8.170288 9.841324 -2.643566
												}
											}
										}
										JOINT Bip01_Jaw
										{
											OFFSET 9.196068 -4.110695 -0.000013
											CHANNELS 3 Xrotation Yrotation Zrotation
											JOINT Bip01_Ponytail1Nub
											{
												OFFSET 10.976463 -21.082108 -0.000053
												CHANNELS 3 Xrotation Yrotation Zrotation
												End Site
												{
													OFFSET 11.247093 -20.938980 0.000113
												}
											}
										}
										JOINT Bip01_HeadNub
										{
											OFFSET 29.954575 -18.249489 -0.000063
											CHANNELS 3 Xrotation Yrotation Zrotation
											End Site
											{
												OFFSET -9.198448 -13.366348 0.000168
											}
										}
									}
								}
							}
						}
					}
				}
			}
		}
	}
}
MOTION
Frames: 5
Frame Time: 0.033333
0.000000 0.000000 0.000000 0.000008 0.000000 -0.000000 -0.000000 0.000000 -0.000000 0.000000 0.000000 -0.000006 -0.003516 0.000000 -0.000022 2.490172 -2.051918 38.057353 0.122404 -0.319543 23.183617 -0.264685 0.672096 18.335238 -0.250525 1.429658 8.407997 -0.077032 1.792565 0.347453 0.143672 0.000484 10.382443 -10.863751 6.980036 -8.332216 -0.138820 -0.008463 0.704475 0.554777 0.016792 -2.811753 11.421885 -4.791344 1.213369 0.000740 -0.000018 -0.003726 0.000101 -0.000137 0.000004 4.837516 -5.767545 -25.754393 2.294455 0.364633 11.782869 -0.352562 -0.013835 -1.787413 -8.350997 4.260345 5.862144 -0.000888 0.000006 -0.003709 -0.008661 0.000483 -0.038577 0.143184 -0.019006 -11.498069 0.917530 -0.020777 6.784391 -0.003497 -0.188765 0.020299 -0.052408 1.540617 -5.471444 0.000078 -0.000112 -0.000056 -0.000052 -0.014928 0.015042 -0.008351 0.000146 0.012195 -0.568737 -0.425324 0.517750 -1.168126 -0.741254 1.030333 3.911991 0.387148 -27.926084 -3.198306 -2.280560 27.023063 -10.712437 -0.038495 6.431004 -0.000428 -0.015042 0.366837 7.000503 1.382770 -1.298824 3.844265 0.133269 1.768839 -1.002812 -0.004255 -0.069920 -0.781893 0.140319 -0.478837 -0.804180 0.123449 -0.482657 -3.319546 -2.126802 27.489403 10.866330 -3.455629 8.665532 -0.011797 -0.170927 -4.178312 -9.075648 -2.003524 3.758174 -5.953882 -0.076729 0.715853 2.691592 2.076472 -0.752295 0.028231 0.072122 2.451900 -0.000912 0.100574 2.451955 2.159041 0.232381 -0.300361 -0.667160 -0.326257 0.973486 -1.377122 -0.572908 1.400915 -0.127856 1.501309 -30.994818 -0.044971 0.001623 0.046329 -1.197764 -0.163589 1.970171 -1.213769 0.170274 1.906973 -4.136597 -11.071732 -3.564420 -0.000030 0.000325 33.480068 -0.441787 -0.458728 -72.796143 -0.000060 -0.000070 -21.994000 0.000020 -0.000008 -0.026808 0.000002 -0.000015 0.012745 -0.000095 -0.000108 -34.639902 0.000036 0.000015 0.015165 0.000025 -0.000010 0.012721 -0.000052 -0.000055 -24.223461 0.000013 -0.000014 -0.000048 -0.073028 0.030626 0.020258 -2.238578 -2.095530 2.288990 -6.603259 -10.818407 1.777827 0.024171 -0.030005 11.786606 0.728756 0.013309 0.474348 0.023223 -0.032305 11.715989 -8.736198 -44.212422 -58.795470 0.050257 0.015096 11.755983 0.866547 45.208172 -55.392110 0.050134 0.014753 11.743119 0.644887 0.598208 8.502771 -0.001997 -0.023982 11.750658 0.000072 -0.000033 11.750677 
0.000000 0.000000 0.000000 0.000008 0.000000 -0.000000 -0.000000 0.000000 -0.000000 0.000000 0.000097 -0.000006 -0.003516 0.000000 -0.000022 2.513147 -2.071385 38.011219 0.125176 -0.411351 23.183675 -0.210874 0.577756 18.334610 -0.249272 1.388259 8.421640 -0.078312 1.834919 0.368738 0.143672 0.000484 10.382443 -10.889212 7.048461 -8.381043 -0.157819 -0.009757 0.800878 0.560796 0.016817 -2.842194 11.421261 -4.822496 1.206915 0.000740 -0.000019 -0.003726 0.000101 -0.000136 0.000004 4.819589 -5.784807 -25.778640 2.309420 0.368632 11.861153 -0.364632 -0.014105 -1.848533 -8.340579 4.275198 5.873034 -0.000888 0.000005 -0.003709 -0.008661 0.000482 -0.038577 0.150942 0.015318 -11.498074 0.917530 -0.020777 6.784390 0.020909 -0.188198 0.019758 0.002664 1.542704 -5.369753 0.000078 -0.000113 -0.000056 -0.000052 -0.014927 0.015041 -0.008355 0.000144 0.012192 -0.564718 -0.370658 0.463829 -1.126341 -0.685928 0.960777 3.910958 0.395114 -27.926306 -3.198463 -2.295824 26.991589 -10.824062 -0.062596 6.563147 0.000016 0.000229 -0.005669 7.084675 1.304929 -1.117249 3.844266 0.133270 1.768839 -1.002932 -0.004255 -0.069932 -0.781920 0.140319 -0.478839 -0.804180 0.123449 -0.482658 -3.320194 -2.133140 27.488598 10.754669 -3.496921 8.869365 -0.013834 -0.189572 -4.635427 -9.042621 -2.031316 3.926587 -5.953882 -0.076727 0.715853 2.691429 2.076513 -0.752274 0.028259 0.072122 2.451900 -0.000913 0.100573 2.451955 2.159038 0.232378 -0.300357 -0.619267 -0.296817 0.883879 -1.292055 -0.532235 1.310760 -0.121422 1.496230 -30.960414 -0.044976 0.001626 0.046330 -1.093462 -0.146809 1.799697 -1.105008 0.152523 1.707024 -4.021155 -10.923931 -3.696057 -0.000030 0.000326 33.480071 -0.441786 -0.458727 -72.796143 -0.000059 -0.000071 -21.993996 0.000021 -0.000009 -0.026807 0.000003 -0.000016 0.012747 -0.000094 -0.000110 -34.639902 0.000035 0.000015 0.015165 0.000024 -0.000010 0.012721 -0.000052 -0.000055 -24.223466 0.000013 -0.000014 -0.000046 -0.073039 0.030633 0.020258 -2.360127 -2.076784 2.095075 -6.671991 -10.996536 1.770576 0.024189 -0.030002 11.786631 0.702583 0.013016 0.457252 0.023237 -0.032295 11.715964 -8.736197 -44.212416 -58.795470 0.050269 0.015123 11.755985 0.866548 45.208172 -55.392107 0.050146 0.014780 11.743118 0.616186 0.639753 8.569255 -0.001980 -0.024003 11.750655 0.000071 -0.000033 11.750675 
0.000000 0.000000 0.000000 0.000008 0.000000 -0.000000 -0.000000 0.000000 -0.000000 0.000000 0.009892 0.000001 -0.003516 0.000000 -0.000022 2.515479 -2.075414 37.961628 0.128019 -0.505491 23.194267 -0.181275 0.442422 18.330638 -0.247099 1.316521 8.432013 -0.079568 1.876483 0.389614 0.143672 0.000484 10.382443 -10.843320 7.027913 -8.439690 -0.176436 -0.011056 0.895411 0.566685 0.016851 -2.872070 11.420641 -4.853044 1.200591 0.000740 -0.000019 -0.003726 0.000101 -0.000138 0.000004 4.802017 -5.801743 -25.802438 2.322678 0.372192 11.930670 -0.374984 -0.014340 -1.901023 -8.330360 4.289776 5.883707 -0.000888 0.000006 -0.003709 -0.008661 0.000483 -0.038577 0.156309 0.039061 -11.494645 0.917530 -0.020777 6.784392 0.044839 -0.187657 0.019212 0.043096 1.541711 -5.287035 0.000078 -0.000112 -0.000056 -0.000052 -0.014928 0.015041 -0.008351 0.000146 0.012194 -0.589813 -0.288672 0.379987 -1.085302 -0.631719 0.892531 3.909434 0.406897 -27.923162 -3.197159 -2.315935 26.949818 -10.927667 -0.066809 6.699912 0.000483 0.013501 -0.329451 7.175643 1.216827 -0.955563 3.844266 0.133269 1.768839 -1.002860 -0.004213 -0.069916 -0.781948 0.140320 -0.478841 -0.804180 0.123449 -0.482658 -3.322168 -2.152399 27.486141 10.653236 -3.513204 9.041810 -0.015726 -0.205714 -5.031681 -9.003021 -2.062053 4.079373 -5.953882 -0.076727 0.715853 2.691480 2.076468 -0.752308 0.028286 0.072123 2.451900 -0.000913 0.100573 2.451955 2.159014 0.232391 -0.300340 -0.565161 -0.248453 0.745387 -1.208561 -0.492610 1.222259 -0.118741 1.494116 -30.911841 -0.044978 0.001625 0.046334 -0.948296 -0.126051 1.530467 -0.998423 0.134753 1.510969 -3.897680 -10.733581 -3.816090 -0.000029 0.000324 33.480071 -0.441787 -0.458728 -72.796149 -0.000059 -0.000072 -21.993998 0.000020 -0.000008 -0.026805 0.000003 -0.000016 0.012749 -0.000095 -0.000109 -34.639899 0.000035 0.000015 0.015165 0.000025 -0.000010 0.012721 -0.000052 -0.000055 -24.223461 0.000013 -0.000013 -0.000046 -0.073038 0.030631 0.020262 -2.479236 -2.057985 1.904977 -6.739497 -11.171217 1.763273 0.024208 -0.029992 11.786647 0.676920 0.012748 0.440478 0.023253 -0.032293 11.715944 -8.736198 -44.212422 -58.795464 0.050284 0.015140 11.755990 0.866552 45.208165 -55.392110 0.050157 0.014799 11.743108 0.587986 0.680435 8.634437 -0.001962 -0.024024 11.750654 0.000072 -0.000033 11.750675 
0.000000 0.000000 0.000000 0.000008 0.000000 -0.000000 -0.000000 0.000000 -0.000000 0.000000 0.022256 0.000001 -0.003516 0.000000 -0.000022 2.498775 -2.065505 37.907577 0.130890 -0.600555 23.204888 -0.115728 0.305440 18.326632 -0.244101 1.217476 8.432083 -0.080836 1.918429 0.410682 0.143672 0.000484 10.385940 -10.882716 7.098633 -8.498192 -0.195227 -0.012392 0.990892 0.572642 0.016879 -2.902248 11.439214 -4.888052 1.196894 0.000740 -0.000020 -0.003726 0.000101 -0.000137 0.000004 4.784228 -5.812097 -25.821201 2.334666 0.375427 11.993441 -0.385450 -0.014554 -1.954013 -8.315471 4.291481 5.887372 -0.000888 0.000005 -0.003709 -0.008661 0.000484 -0.038577 0.159392 0.052705 -11.491155 0.917530 -0.020777 6.784391 0.069005 -0.187096 0.018685 0.080603 1.533859 -5.227974 0.000078 -0.000112 -0.000056 -0.000052 -0.014928 0.015042 -0.008353 0.000146 0.012194 -0.656871 -0.219224 0.318075 -1.043787 -0.577024 0.823572 3.907813 0.419412 -27.916458 -3.190587 -2.334057 26.908263 -11.025289 -0.067341 6.826646 0.000963 0.025329 -0.618081 7.268424 1.116690 -0.801582 3.844266 0.133269 1.768839 -1.002809 -0.004207 -0.069912 -0.782001 0.140320 -0.478845 -0.804180 0.123449 -0.482658 -3.323645 -2.166722 27.484314 10.562625 -3.518678 9.195374 -0.017493 -0.220007 -5.382785 -8.962976 -2.096971 4.223544 -5.953883 -0.076727 0.715853 2.691417 2.076516 -0.752302 0.028340 0.072123 2.451898 -0.000913 0.100573 2.451955 2.158984 0.232395 -0.300293 -0.575454 -0.220512 0.637296 -1.124155 -0.452855 1.132776 -0.115074 1.491221 -30.855236 -0.044990 0.001623 0.046332 -0.887603 -0.112977 1.333445 -0.890843 0.116433 1.313012 -3.757898 -10.501786 -3.924479 -0.000029 0.000325 33.480071 -0.441786 -0.458728 -72.796149 -0.000059 -0.000072 -21.994001 0.000020 -0.000008 -0.026802 0.000002 -0.000016 0.012747 -0.000095 -0.000109 -34.639899 0.000035 0.000015 0.015168 0.000025 -0.000010 0.012721 -0.000051 -0.000055 -24.223466 0.000013 -0.000013 -0.000046 -0.073048 0.030638 0.020250 -2.599464 -2.038614 1.713045 -6.807814 -11.347636 1.755658 0.024241 -0.029986 11.786697 0.650990 0.012474 0.423548 0.023283 -0.032287 11.715899 -8.736197 -44.212419 -58.795470 0.050309 0.015191 11.755999 0.866550 45.208165 -55.392107 0.050180 0.014846 11.743100 0.559469 0.721516 8.700316 -0.001928 -0.024066 11.750653 0.000071 -0.000033 11.750674 
0.000000 0.000000 0.000000 0.000008 0.000000 -0.000000 -0.000000 0.000000 -0.000000 0.000000 0.042280 -0.000006 -0.003516 0.000000 -0.000022 2.464084 -2.042482 37.849726 0.133286 -0.679909 23.219196 -0.065965 0.149585 18.331714 -0.239656 1.070612 8.424657 -0.082117 1.960812 0.431971 0.143672 -0.003012 10.392998 -10.853482 7.089212 -8.567641 -0.215208 -0.013853 1.092311 0.578654 0.016900 -2.932696 11.457973 -4.923410 1.193175 0.000740 -0.000019 -0.003726 0.000101 -0.000138 0.000004 4.766310 -5.822523 -25.840086 2.344605 0.378119 12.045572 -0.393737 -0.014731 -1.996043 -8.298597 4.282640 5.891864 -0.000888 0.000006 -0.003709 -0.008661 0.000483 -0.038577 0.160934 0.059527 -11.487681 0.917530 -0.020777 6.784392 0.093408 -0.186558 0.018130 0.108014 1.526166 -5.182547 0.000078 -0.000112 -0.000056 -0.000052 -0.014928 0.015042 -0.008354 0.000143 0.012191 -0.724487 -0.149052 0.255654 -1.001814 -0.521846 0.753898 3.905713 0.435639 -27.906235 -3.190298 -2.360759 26.859739 -11.117903 -0.059871 6.958881 0.001424 0.035684 -0.870626 7.368281 1.003687 -0.660531 3.844265 0.133269 1.768839 -1.002780 -0.004214 -0.069900 -0.782109 0.140319 -0.478853 -0.804180 0.123449 -0.482658 -3.325377 -2.183883 27.482120 10.477214 -3.508649 9.329173 -0.019103 -0.232403 -5.687531 -8.920277 -2.135710 4.351305 -5.953883 -0.076727 0.715853 2.691526 2.076467 -0.752301 0.028448 0.072123 2.451898 -0.000913 0.100574 2.451955 2.158921 0.232386 -0.300289 -0.586094 -0.192310 0.528329 -1.038856 -0.412966 1.042282 -0.110506 1.487616 -30.782850 -0.044991 0.001622 0.046331 -0.888874 -0.107721 1.142640 -0.782276 0.097555 1.113167 -3.604274 -10.231432 -4.017665 -0.000029 0.000325 33.480071 -0.441786 -0.458729 -72.796143 -0.000059 -0.000072 -21.994003 0.000020 -0.000008 -0.026800 0.000002 -0.000016 0.012749 -0.000095 -0.000110 -34.639902 0.000036 0.000015 0.015163 0.000025 -0.000010 0.012718 -0.000052 -0.000055 -24.223466 0.000012 -0.000014 -0.000050 -0.073061 0.030643 0.020259 -2.720799 -2.018633 1.519267 -6.876914 -11.525718 1.747751 0.024309 -0.029970 11.786774 0.624817 0.012194 0.406443 0.023342 -0.032270 11.715812 -8.736199 -44.212426 -58.795470 0.050356 0.015287 11.756017 0.866553 45.208168 -55.392103 0.050229 0.014941 11.743077 0.530629 0.762971 8.766841 -0.001858 -0.024148 11.750659 0.000072 -0.000033 11.750675 
